<?xml version="1.0" encoding="utf-8"?>
<!-- Generator: Adobe Illustrator 22.1.0, SVG Export Plug-In . SVG Version: 6.00 Build 0)  -->
<svg version="1.1" id="图层_1" xmlns="http://www.w3.org/2000/svg" xmlns:xlink="http://www.w3.org/1999/xlink" x="0px" y="0px"
	 viewBox="0 0 161 61" style="enable-background:new 0 0 161 61;" xml:space="preserve">
<style type="text/css">
	.st0{fill:#FFFFFF;}
	.st1{enable-background:new    ;}
	.st2{fill:url(#SVGID_1_);}
	.st3{opacity:0.43;fill:none;stroke:#FFFFFF;stroke-width:0.7;stroke-miterlimit:10;}
	.st4{opacity:0.43;}
</style>
<title>TestFlight入口</title>
<desc>Created with Sketch.</desc>
<g>
	<g id="页面-1">
		<g id="第一屏_xFF08_1_xFF09_备份-2" transform="translate(-1322.000000, -2101.000000)">
			<g id="第三屏" transform="translate(0.000000, 1579.000000)">
				<g id="TestFlight入口" transform="translate(1322.666667, 522.000000)">
					<path id="矩形" class="st0" d="M4-0.03h152c2.209,0,4,1.791,4,4v52.8c0,2.209-1.791,4-4,4H4c-2.209,0-4-1.791-4-4V3.97
						C0,1.761,1.791-0.03,4-0.03z"/>
					<g class="st1">
						<path d="M49.506,18.684c0-3.001,1.456-3.998,3.842-3.998c0.728,0,1.602,0.112,2.061,0.28v1.299
							c-0.56-0.213-1.254-0.313-1.96-0.313c-1.579,0-2.363,0.582-2.363,2.732c0,2.263,0.694,2.756,2.296,2.756
							c0.336,0,0.695-0.022,0.975-0.09v-1.927h-1.4v-1.231h2.777v4.155c-0.582,0.179-1.5,0.336-2.464,0.336
							C50.917,22.683,49.506,21.932,49.506,18.684z"/>
						<path d="M62.464,19.816l-3.965,0.257c0.034,1.009,0.526,1.479,1.736,1.479c0.728,0,1.557-0.201,1.971-0.414v1.143
							c-0.358,0.201-1.232,0.403-2.217,0.403c-1.837,0-2.901-0.694-2.901-3.137c0-2.441,1.064-3.136,2.901-3.136
							c2.094,0,2.531,1.188,2.531,2.609C62.52,19.312,62.498,19.613,62.464,19.816z M61.221,18.874c0-0.75-0.157-1.389-1.232-1.389
							c-1.131,0-1.445,0.538-1.49,1.591L61.221,18.874z"/>
						<path d="M65.443,17.643v2.912c0,0.783,0.134,0.974,0.75,0.974c0.212,0,0.38-0.011,0.548-0.056v1.108
							c-0.235,0.034-0.493,0.057-0.75,0.057c-1.445,0-1.949-0.381-1.949-1.972v-3.023h-0.84v-1.12h0.84v-1.434h1.4v1.434h1.333v1.12
							H65.443z"/>
						<path d="M70.64,14.831c0-0.683,0.168-0.75,0.795-0.75c0.627,0,0.795,0.067,0.795,0.75c0,0.672-0.168,0.762-0.795,0.762
							C70.808,15.593,70.64,15.503,70.64,14.831z M70.729,16.523h1.4v6.048h-1.4V16.523z"/>
						<path d="M75.389,17.643v2.912c0,0.783,0.134,0.974,0.75,0.974c0.212,0,0.38-0.011,0.548-0.056v1.108
							c-0.235,0.034-0.493,0.057-0.75,0.057c-1.445,0-1.949-0.381-1.949-1.972v-3.023h-0.84v-1.12h0.84v-1.434h1.4v1.434h1.333v1.12
							H75.389z"/>
						<path d="M80.372,19.546c0-2.441,1.063-3.136,2.9-3.136c1.848,0,2.912,0.694,2.912,3.136c0,2.442-1.064,3.137-2.912,3.137
							C81.436,22.683,80.372,21.988,80.372,19.546z M84.741,19.546c0-1.567-0.37-2.061-1.468-2.061
							c-1.108,0-1.456,0.493-1.456,2.061c0,1.568,0.37,2.05,1.456,2.05C84.404,21.596,84.741,21.114,84.741,19.546z"/>
						<path d="M92.95,18.427v4.144h-1.4v-3.752c0-0.852-0.19-1.243-1.041-1.243c-0.717,0-1.232,0.201-1.479,0.963v4.032h-1.4v-6.048
							h1.4v0.762c0.347-0.628,1.075-0.874,1.904-0.874C92.468,16.41,92.95,17.15,92.95,18.427z"/>
					</g>
					<g class="st1">
						<path d="M56.837,34.243h-3.175v9.728h-2.201v-9.728h-3.159v-1.932h8.535V34.243z"/>
						<path d="M65.153,39.838l-5.947,0.387c0.05,1.512,0.79,2.218,2.604,2.218c1.092,0,2.335-0.303,2.957-0.622v1.714
							c-0.538,0.302-1.848,0.604-3.326,0.604c-2.755,0-4.352-1.042-4.352-4.704s1.596-4.704,4.352-4.704
							c3.142,0,3.796,1.781,3.796,3.915C65.237,39.082,65.203,39.535,65.153,39.838z M63.288,38.426
							c0-1.126-0.235-2.083-1.848-2.083c-1.697,0-2.167,0.807-2.234,2.386L63.288,38.426z"/>
						<path d="M66.934,43.786v-1.765c0.79,0.235,1.881,0.403,2.705,0.403c1.159,0,1.713-0.235,1.713-1.075
							c0-0.856-0.302-1.041-1.848-1.411c-1.966-0.47-2.453-1.059-2.453-2.587c0-1.63,1.025-2.621,3.495-2.621
							c0.958,0,1.965,0.135,2.419,0.303l-0.101,1.646c-0.487-0.168-1.428-0.336-2.251-0.336c-1.16,0-1.596,0.235-1.596,0.991
							c0,0.705,0.286,0.823,1.697,1.176c2.016,0.487,2.621,1.075,2.621,2.772c0,2.032-1.31,2.788-3.595,2.788
							C68.731,44.071,67.64,43.97,66.934,43.786z"/>
						<path d="M77.786,36.579v4.367c0,1.177,0.201,1.462,1.125,1.462c0.319,0,0.571-0.017,0.823-0.084v1.663
							c-0.353,0.051-0.739,0.084-1.126,0.084c-2.167,0-2.923-0.571-2.923-2.957v-4.535h-1.26v-1.681h1.26v-2.15h2.1v2.15h1.999
							v1.681H77.786z"/>
						<path d="M83.683,34.226V37.3h4.368v1.916h-4.368v4.754h-2.201V32.311h6.905v1.915H83.683z"/>
						<path d="M90.403,41.853v-10.65h2.1v10.146c0,0.84,0.219,1.042,0.79,1.042c0.168,0,0.353-0.017,0.555-0.067v1.646
							c-0.303,0.067-0.622,0.101-1.008,0.101C91.058,44.071,90.403,43.399,90.403,41.853z"/>
						<path d="M95.258,32.362c0-1.025,0.252-1.126,1.192-1.126c0.941,0,1.193,0.101,1.193,1.126c0,1.008-0.252,1.142-1.193,1.142
							C95.51,33.504,95.258,33.37,95.258,32.362z M95.392,34.898h2.101v9.072h-2.101V34.898z"/>
						<path d="M108.245,34.898v8.384c0,2.503-1.294,4.049-4.821,4.049c-0.807,0-1.781-0.102-2.453-0.219v-1.697
							c0.688,0.169,1.562,0.253,2.335,0.253c1.982,0,2.856-0.655,2.856-2.487v-0.638c-0.37,0.891-1.143,1.428-2.806,1.428
							c-2.974,0-3.713-1.848-3.713-4.62c0-2.503,0.739-4.62,3.713-4.62c1.714,0,2.452,0.588,2.806,1.495v-1.327H108.245z
							 M106.245,39.35c0-1.848-0.403-3.007-2.353-3.007c-1.864,0-2.066,1.444-2.066,3.007c0,1.68,0.252,3.041,2.066,3.041
							C105.842,42.391,106.245,41.265,106.245,39.35z"/>
						<path d="M118.878,37.755v6.216h-2.1v-5.628c0-1.276-0.303-1.865-1.562-1.865c-1.059,0-1.882,0.319-2.218,1.495v5.998h-2.1
							V31.203h2.1v4.872c0.504-0.958,1.613-1.345,2.856-1.345C118.157,34.73,118.878,35.84,118.878,37.755z"/>
						<path d="M123.734,36.579v4.367c0,1.177,0.201,1.462,1.126,1.462c0.318,0,0.571-0.017,0.823-0.084v1.663
							c-0.354,0.051-0.739,0.084-1.126,0.084c-2.167,0-2.923-0.571-2.923-2.957v-4.535h-1.261v-1.681h1.261v-2.15h2.1v2.15h1.999
							v1.681H123.734z"/>
					</g>
				</g>
			</g>
		</g>
	</g>
	<linearGradient id="SVGID_1_" gradientUnits="userSpaceOnUse" x1="29.8679" y1="17.6402" x2="30.024" y2="41.159">
		<stop  offset="0" style="stop-color:#24C1FB"/>
		<stop  offset="1" style="stop-color:#1D74F3"/>
	</linearGradient>
	<path class="st2" d="M36.578,41.486H23.315c-2.965,0-5.368-2.403-5.368-5.368V22.854c0-2.965,2.403-5.368,5.368-5.368h13.264
		c2.965,0,5.368,2.403,5.368,5.368v13.264C41.947,39.082,39.543,41.486,36.578,41.486z"/>
	<circle class="st3" cx="29.947" cy="29.486" r="9"/>
	<g>
		<path class="st0" d="M29.946,31.277c-0.988,0-1.792-0.804-1.792-1.792s0.804-1.792,1.792-1.792s1.792,0.804,1.792,1.792
			S30.935,31.277,29.946,31.277z M29.946,28.277c-0.666,0-1.208,0.542-1.208,1.208s0.542,1.208,1.208,1.208s1.208-0.542,1.208-1.208
			S30.612,28.277,29.946,28.277z"/>
	</g>
	<g>
		<path class="st0" d="M30.937,20.809c0-0.325-0.3-0.581-0.66-0.581h-0.66c-0.36,0-0.66,0.255-0.66,0.581
			c0,1.495-0.04,2.463,0.06,3.976c0.08,1.029,0.22,2.542,0.38,3.466h1.1c0.16-0.924,0.3-2.437,0.38-3.466
			C30.977,23.272,30.937,22.304,30.937,20.809z M30.457,24.952c-0.04,0.598-0.12,2.358-0.21,2.894h-0.6
			c-0.09-0.537-0.17-2.296-0.21-2.894c-0.05-0.783-0.04-2.806-0.03-3.528h1.08C30.497,22.146,30.507,24.169,30.457,24.952z"/>
	</g>
	<g>
		<path class="st0" d="M21.991,33.085c-0.282,0.163-0.353,0.55-0.173,0.862l0.33,0.572c0.18,0.312,0.551,0.444,0.833,0.281
			c1.295-0.748,2.153-1.197,3.413-2.04c0.851-0.584,2.092-1.462,2.812-2.062l-0.55-0.953c-0.88,0.323-2.26,0.959-3.192,1.404
			C24.104,31.819,23.286,32.337,21.991,33.085z M25.819,31.429c0.538-0.264,2.102-1.075,2.611-1.265l0.3,0.52
			c-0.42,0.346-1.903,1.295-2.401,1.629c-0.653,0.435-2.41,1.438-3.04,1.79l-0.54-0.935C23.369,32.797,25.116,31.777,25.819,31.429z
			"/>
	</g>
	<g>
		<path class="st0" d="M34.454,31.133c-0.931-0.445-2.312-1.081-3.192-1.404l-0.55,0.953c0.72,0.6,1.96,1.478,2.812,2.062
			c1.26,0.843,2.118,1.292,3.413,2.04c0.282,0.163,0.653,0.031,0.833-0.281l0.33-0.572c0.18-0.312,0.109-0.699-0.173-0.862
			C36.632,32.322,35.814,31.803,34.454,31.133z M37.169,33.151l-0.54,0.935c-0.63-0.352-2.387-1.355-3.04-1.79
			c-0.498-0.334-1.982-1.283-2.401-1.629l0.3-0.52c0.51,0.19,2.073,1.001,2.611,1.265C34.802,31.761,36.549,32.782,37.169,33.151z"
			/>
	</g>
	<g class="st4">
		<path class="st0" d="M29.495,29.905L29.495,29.905c-0.037-0.037-0.037-0.096,0-0.133l0.822-0.822c0.037-0.037,0.096-0.037,0.133,0
			l0,0c0.037,0.037,0.037,0.096,0,0.133l-0.822,0.822C29.591,29.942,29.532,29.942,29.495,29.905z"/>
	</g>
	<g class="st4">
		<path class="st0" d="M29.486,28.941L29.486,28.941c0.037-0.037,0.096-0.037,0.133,0l0.822,0.822c0.037,0.037,0.037,0.096,0,0.133
			l0,0c-0.037,0.037-0.096,0.037-0.133,0l-0.822-0.822C29.449,29.037,29.449,28.978,29.486,28.941z"/>
	</g>
</g>
</svg>
